<?xml version="1.0" encoding="utf-8"?>
<!-- Generator: Adobe Illustrator 19.1.1, SVG Export Plug-In . SVG Version: 6.00 Build 0)  -->
<svg version="1.1" xmlns="http://www.w3.org/2000/svg" xmlns:xlink="http://www.w3.org/1999/xlink" x="0px" y="0px"
	 viewBox="0 0 500 500" style="enable-background:new 0 0 500 500;" xml:space="preserve">
<style type="text/css">
	.st0{fill:#FFFFFF;}
    .bg{stroke: #e74c3c;fill:#e74c3c;}
</style>
<g id="layer1">
    <circle cx="250" cy="250" r="250" class="bg" />
</g>
<g id="logo">
	<g>
		<path class="st0" d="M152.8,184.5c3.2-3.2,7.8-4.8,14-4.8h78v-29.3H140.5c-1.8,0-3.3-0.6-4.5-1.8c-1-1.2-1.5-2.6-1.5-4.3
			c0-1.7,0.5-3.1,1.5-4.3c1.3-1,2.8-1.5,4.5-1.5h218c1.7,0,3.1,0.5,4.3,1.5c1,1.2,1.5,2.6,1.5,4.3c0,1.7-0.5,3.1-1.5,4.3
			c-1.2,1.2-2.6,1.8-4.3,1.8h-102v29.3H334c6,0,10.8,1.8,14.5,5.5c3.2,3.3,4.8,8,5,14v135.5c-0.2,7.7-1.6,13.6-4.3,17.8
			c-2.2,3.3-4.8,5.6-8,6.8c-3.8,1.7-9.1,2.6-15.8,2.8c-5.3,0.3-15.6-1.5-30.8-5.5c-2-0.5-3.5-1.6-4.5-3.3c-0.8-1.3-1-2.8-0.5-4.5
			c0.7-2,1.6-3.3,2.8-4c1.5-0.8,3.3-1,5.5-0.5c14.8,3.8,24.1,5.7,27.8,5.5c3.8-0.2,6.6-0.6,8.3-1.3c2.2-0.8,3.8-2.3,5-4.3
			c1.8-2.3,2.8-6.3,2.8-11.8V202c-0.2-3-1-5.3-2.5-7c-2.2-2.5-4.8-3.7-8-3.5h-74.8v160c0,1.8-0.6,3.3-1.8,4.5
			c-1.2,1.2-2.6,1.8-4.3,1.8c-1.7,0-3.1-0.5-4.3-1.5c-1-1.2-1.5-2.8-1.5-4.8v-160H169c-2.8,0-5.1,0.8-6.8,2.5c-1.8,2-2.8,4.3-2.8,7
			v154.5c0,2-0.6,3.6-1.8,4.8c-1.2,1-2.6,1.5-4.3,1.5c-1.8,0-3.3-0.5-4.3-1.5c-1-1.2-1.5-2.8-1.5-4.8V198.8
			C147.9,192.4,149.6,187.7,152.8,184.5z M174.8,276c-0.2-1.7,0.3-3.1,1.5-4.3c1-1.5,2.3-2.3,3.8-2.5c1.7,0,3.3,0.5,4.8,1.5
			c13.8,10,27.6,23.6,41.3,40.8c1.2,1.5,1.8,3,1.8,4.5c-0.3,1.7-1.1,3.1-2.3,4.3c-1.3,1.2-2.8,1.7-4.3,1.5c-1.8-0.2-3.3-1.1-4.5-2.8
			c-12.8-16.3-25.8-29.3-39-38.8C175.9,279.1,174.9,277.7,174.8,276z M178.8,215c-0.2-1.5,0.3-3,1.5-4.5c1-1.3,2.3-2.1,3.8-2.3
			c1.7,0,3.3,0.6,4.8,1.8c12.3,9.3,24.8,21.8,37.3,37.5c1.2,1.5,1.8,3.1,1.8,4.8c-0.3,1.5-1.1,2.8-2.3,4c-1.5,1.2-3,1.7-4.5,1.5
			c-1.7-0.2-3.1-1.1-4.3-2.8c-11.5-15.2-23.3-27.1-35.3-35.8C179.8,218.1,178.9,216.7,178.8,215z M273.5,280.3
			c-1.7-1.3-2.6-2.8-2.8-4.5c-0.2-1.7,0.3-3.1,1.5-4.3c1-1.3,2.3-2.1,4-2.3c1.7,0,3.3,0.6,4.8,1.8c14,11.2,28,26.1,42,44.8
			c1.2,1.5,1.7,3,1.5,4.5c-0.3,1.7-1.1,3.1-2.3,4.3c-1.3,1-2.8,1.4-4.3,1.3c-1.8-0.2-3.3-1.1-4.5-2.8
			C300.5,305.2,287.2,290.9,273.5,280.3z M277.8,214.8c0-1.5,0.5-3,1.5-4.5c1.2-1.2,2.6-1.8,4.3-2c1.5,0,3,0.6,4.5,1.8
			c12.8,10.8,25.6,25.1,38.3,42.8c1,1.7,1.4,3.3,1.3,4.8c-0.3,1.5-1.1,2.8-2.3,4c-1.5,1-3,1.4-4.5,1.3c-1.7-0.3-3.1-1.3-4.3-3
			c-11.7-17-23.8-30.6-36.3-40.8C278.8,217.8,277.9,216.4,277.8,214.8z"/>
	</g>
</g>
</svg>
